ISO-10303-21;
HEADER;
FILE_DESCRIPTION(('ViewDefinition[CoordinationView_V2.0, QuantityTakeOffAddOnView]', 'Option [BaseQuantities:On]', 'Option [GridExport:On]', 'Option [Assemblies:On]', 'Option [Bolts:On]', 'Option [Rebars:On]', 'Option [PourObjects:Off]', 'Option [Welds:Off]', 'Option [SurfaceTreatments:On]', 'Option [LocationBy:0]', 'Option [ViewColors:Off]', 'Option [SectionedSpine:Off]', 'Option [PropertySets:On]', 'Option [Export all:Off]'),'2;1');
FILE_NAME('out.ifc','2025-01-04T01:20:22',('WIN-BBC2VB8QAO5\\user'),('Structural Designer'),'IFC Parser version: 3.13.2','Tekla Structures 2022 Service Pack 5, IFC Export Version: 4.0.0.0 Oct 14 2022','');
FILE_SCHEMA(('IFC2X3'));
ENDSEC;

DATA;
#1= IFCPERSON('WIN-BBC2VB8QAO5\\user','Undefined',$,$,$,$,$,$);
#2= IFCORGANIZATION($,'Trimble Solutions Corporation',$,$,$);
#3= IFCPERSONANDORGANIZATION(#1,#2,$);
#4= IFCAPPLICATION(#2,'2022 Service Pack 5','Tekla Structures','Multi material modeling');
#5= IFCOWNERHISTORY(#3,#4,$,.NOCHANGE.,$,$,$,1735942822);
#6= IFCCARTESIANPOINT((0.,0.,0.));
#7= IFCDIRECTION((1.,0.,0.));
#8= IFCDIRECTION((0.,1.,0.));
#9= IFCDIRECTION((0.,0.,1.));
#10= IFCAXIS2PLACEMENT3D(#6,#9,#7);
#11= IFCGEOMETRICREPRESENTATIONCONTEXT($,'Model',3,1.E-05,#10,$);
#12= IFCGEOMETRICREPRESENTATIONSUBCONTEXT('Body','Model',*,*,*,*,#11,$,.MODEL_VIEW.,$);
#13= IFCGEOMETRICREPRESENTATIONSUBCONTEXT('Axis','Model',*,*,*,*,#11,$,.GRAPH_VIEW.,$);
#14= IFCGEOMETRICREPRESENTATIONSUBCONTEXT('FootPrint','Model',*,*,*,*,#11,$,.MODEL_VIEW.,$);
#15= IFCSIUNIT(*,.LENGTHUNIT.,.MILLI.,.METRE.);
#16= IFCMEASUREWITHUNIT(IFCRATIOMEASURE(304.8),#15);
#17= IFCDIMENSIONALEXPONENTS(1,0,0,0,0,0,0);
#18= IFCCONVERSIONBASEDUNIT(#17,.LENGTHUNIT.,'FOOT',#16);
#19= IFCSIUNIT(*,.AREAUNIT.,$,.SQUARE_METRE.);
#20= IFCMEASUREWITHUNIT(IFCRATIOMEASURE(0.09290304),#19);
#21= IFCDIMENSIONALEXPONENTS(2,0,0,0,0,0,0);
#22= IFCCONVERSIONBASEDUNIT(#21,.AREAUNIT.,'SQUARE FOOT',#20);
#23= IFCSIUNIT(*,.VOLUMEUNIT.,$,.CUBIC_METRE.);
#24= IFCMEASUREWITHUNIT(IFCRATIOMEASURE(0.028316846592),#23);
#25= IFCDIMENSIONALEXPONENTS(3,0,0,0,0,0,0);
#26= IFCCONVERSIONBASEDUNIT(#25,.VOLUMEUNIT.,'CUBIC FOOT',#24);
#27= IFCSIUNIT(*,.MASSUNIT.,.KILO.,.GRAM.);
#28= IFCSIUNIT(*,.TIMEUNIT.,$,.SECOND.);
#29= IFCSIUNIT(*,.PLANEANGLEUNIT.,$,.RADIAN.);
#30= IFCMEASUREWITHUNIT(IFCRATIOMEASURE(0.0174532925199433),#29);
#31= IFCDIMENSIONALEXPONENTS(0,0,0,0,0,0,0);
#32= IFCCONVERSIONBASEDUNIT(#31,.PLANEANGLEUNIT.,'DEGREE',#30);
#33= IFCSIUNIT(*,.SOLIDANGLEUNIT.,$,.STERADIAN.);
#34= IFCSIUNIT(*,.THERMODYNAMICTEMPERATUREUNIT.,$,.DEGREE_CELSIUS.);
#35= IFCSIUNIT(*,.LUMINOUSINTENSITYUNIT.,$,.LUMEN.);
#36= IFCUNITASSIGNMENT((#15,#19,#23,#27,#28,#29,#33,#34,#35));
#37= IFCPROJECT('2W9t8sFDzABuzAcBl6bZHN',#5,'Undefined',$,$,$,$,(#11),#36);
#38= IFCLOCALPLACEMENT($,#10);
#39= IFCSITE('3QRzYdEUn6Uga9HW07gZ_l',#5,'Undefined',$,$,#38,$,$,.ELEMENT.,$,$,$,$,$);
#40= IFCLOCALPLACEMENT(#38,#10);
#41= IFCBUILDING('0koruMBBTC7xPwZLeHvcdC',#5,'Undefined',$,$,#40,$,$,.ELEMENT.,$,$,$);
#42= IFCLOCALPLACEMENT(#40,#10);
#43= IFCBUILDINGSTOREY('3xhZbhJZT6xfmB_AwLkQNB',#5,'Undefined',$,$,#42,$,$,.ELEMENT.,0.);
#44= IFCOWNERHISTORY(#3,#4,$,.NOCHANGE.,$,$,$,1735941600);
#45= IFCLOCALPLACEMENT(#42,#10);
#46= IFCELEMENTASSEMBLY('1D8scZyGH5MwGIpCsrWb3X',#44,'\X2\04110430043704300020043A043E043B043E043D043D044B\X0\',$,$,#45,$,'\X2\0411041A00310028003F0029\X0\',.NOTDEFINED.,.NOTDEFINED.);
#47= IFCPROPERTYSINGLEVALUE('Cast unit type',$,$,$);
#48= IFCPROPERTYSINGLEVALUE('Control number',$,$,$);
#49= IFCPROPERTYSINGLEVALUE('Cast unit rebar weight',$,$,$);
#50= IFCPROPERTYSINGLEVALUE('Assembly/Cast unit weight',$,IFCMASSMEASURE(52.8),$);
#51= IFCPROPERTYSINGLEVALUE('Assembly/Cast unit bottom elevation',$,IFCLABEL(' +0.200'),$);
#52= IFCPROPERTYSINGLEVALUE('Assembly/Cast unit top elevation',$,IFCLABEL(' +0.810'),$);
#53= IFCPROPERTYSINGLEVALUE('Assembly/Cast unit position code',$,IFCLABEL(''),$);
#54= IFCPROPERTYSINGLEVALUE('Assembly/Cast unit Mark',$,IFCLABEL('\X2\0411041A00310028003F0029\X0\'),$);
#55= IFCPROPERTYSET('0AR6gihsr9chfxN7V8Eio6',#5,'Tekla Assembly','Assembly Properties',(#47,#48,#49,#50,#51,#52,#53,#54));
#56= IFCQUANTITYLENGTH('Width',$,$,610.);
#57= IFCELEMENTQUANTITY('3pxkMrMLz0Mflt1TXG6m4j',#5,'BaseQuantities',$,$,(#56));
#58= IFCCOLOURRGB($,0.698039215686274,0.4,0.);
#59= IFCSURFACESTYLERENDERING(#58,0.,$,$,$,$,IFCNORMALISEDRATIOMEASURE(0.00390625),IFCSPECULAREXPONENT(10.),.NOTDEFINED.);
#60= IFCSURFACESTYLE('Undefined',.POSITIVE.,(#59));
#61= IFCPRESENTATIONSTYLEASSIGNMENT((#60));
#62= IFCCOLOURRGB($,0.,0.,0.);
#63= IFCSURFACESTYLERENDERING(#62,0.,$,$,$,$,IFCNORMALISEDRATIOMEASURE(0.00390625),IFCSPECULAREXPONENT(10.),.NOTDEFINED.);
#64= IFCSURFACESTYLE($,.POSITIVE.,(#63));
#65= IFCPRESENTATIONSTYLEASSIGNMENT((#64));
#66= IFCDIRECTION((1.,0.));
#67= IFCCARTESIANPOINT((0.,0.));
#68= IFCAXIS2PLACEMENT2D(#67,#66);
#69= IFCCIRCLEPROFILEDEF(.AREA.,$,#68,11.);
#70= IFCCARTESIANPOINT((0.,-8.4,0.));
#71= IFCAXIS2PLACEMENT3D(#70,#8,#7);
#72= IFCEXTRUDEDAREASOLID(#69,#71,#9,3.5);
#73= IFCSTYLEDITEM(#72,(#65),$);
#74= IFCCARTESIANPOINT((0.,-6.,0.));
#75= IFCAXIS2PLACEMENT3D(#74,#8,#7);
#76= IFCEXTRUDEDAREASOLID(#69,#75,#9,12.);
#77= IFCSTYLEDITEM(#76,(#65),$);
#78= IFCCARTESIANPOINT((0.,4.90000000000001,0.));
#79= IFCAXIS2PLACEMENT3D(#78,#8,#7);
#80= IFCEXTRUDEDAREASOLID(#69,#79,#9,3.6);
#81= IFCSTYLEDITEM(#80,(#65),$);
#82= IFCCARTESIANPOINT((15.,-8.66025403784439));
#83= IFCCARTESIANPOINT((15.,8.66025403784439));
#84= IFCCARTESIANPOINT((1.06057523872491E-15,17.3205080756888));
#85= IFCCARTESIANPOINT((-15.,8.66025403784439));
#86= IFCCARTESIANPOINT((-15.,-8.66025403784438));
#87= IFCCARTESIANPOINT((-1.85654272072432E-14,-17.3205080756888));
#88= IFCPOLYLINE((#82,#83,#84,#85,#86,#87,#82));
#89= IFCARBITRARYCLOSEDPROFILEDEF(.AREA.,$,#88);
#90= IFCCARTESIANPOINT((0.,-24.,0.));
#91= IFCAXIS2PLACEMENT3D(#90,#8,#7);
#92= IFCEXTRUDEDAREASOLID(#89,#91,#9,12.5);
#93= IFCSTYLEDITEM(#92,(#61),$);
#94= IFCCIRCLEPROFILEDEF(.AREA.,$,#68,10.);
#95= IFCCARTESIANPOINT((0.,-11.5,0.));
#96= IFCAXIS2PLACEMENT3D(#95,#8,#7);
#97= IFCEXTRUDEDAREASOLID(#94,#96,#9,50.);
#98= IFCSTYLEDITEM(#97,(#61),$);
#99= IFCCIRCLEPROFILEDEF(.AREA.,$,#68,18.5);
#100= IFCEXTRUDEDAREASOLID(#99,#96,#9,3.);
#101= IFCSTYLEDITEM(#100,(#61),$);
#102= IFCCIRCLEPROFILEDEF(.AREA.,$,#68,14.75);
#103= IFCCARTESIANPOINT((0.,8.5,0.));
#104= IFCAXIS2PLACEMENT3D(#103,#8,#7);
#105= IFCEXTRUDEDAREASOLID(#102,#104,#9,4.5);
#106= IFCSTYLEDITEM(#105,(#61),$);
#107= IFCCARTESIANPOINT((0.,13.,0.));
#108= IFCAXIS2PLACEMENT3D(#107,#8,#7);
#109= IFCEXTRUDEDAREASOLID(#89,#108,#9,18.);
#110= IFCSTYLEDITEM(#109,(#61),$);
#111= IFCCARTESIANPOINT((0.,0.,125.));
#112= IFCCARTESIANTRANSFORMATIONOPERATOR3D($,$,#111,$,$);
#113= IFCSHAPEREPRESENTATION(#12,'Body','SweptSolid',(#72,#76,#80,#92,#97,#100,#105,#109));
#114= IFCREPRESENTATIONMAP(#10,#113);
#115= IFCMAPPEDITEM(#114,#112);
#116= IFCCARTESIANPOINT((70.,0.,125.));
#117= IFCCARTESIANTRANSFORMATIONOPERATOR3D($,$,#116,$,$);
#118= IFCMAPPEDITEM(#114,#117);
#119= IFCCARTESIANPOINT((235.,0.,125.));
#120= IFCCARTESIANTRANSFORMATIONOPERATOR3D($,$,#119,$,$);
#121= IFCMAPPEDITEM(#114,#120);
#122= IFCCARTESIANPOINT((400.,0.,125.));
#123= IFCCARTESIANTRANSFORMATIONOPERATOR3D($,$,#122,$,$);
#124= IFCMAPPEDITEM(#114,#123);
#125= IFCCARTESIANPOINT((470.,0.,125.));
#126= IFCCARTESIANTRANSFORMATIONOPERATOR3D($,$,#125,$,$);
#127= IFCMAPPEDITEM(#114,#126);
#128= IFCCARTESIANPOINT((0.,0.,-125.));
#129= IFCCARTESIANTRANSFORMATIONOPERATOR3D($,$,#128,$,$);
#130= IFCMAPPEDITEM(#114,#129);
#131= IFCCARTESIANPOINT((70.,0.,-125.));
#132= IFCCARTESIANTRANSFORMATIONOPERATOR3D($,$,#131,$,$);
#133= IFCMAPPEDITEM(#114,#132);
#134= IFCCARTESIANPOINT((235.,0.,-125.));
#135= IFCCARTESIANTRANSFORMATIONOPERATOR3D($,$,#134,$,$);
#136= IFCMAPPEDITEM(#114,#135);
#137= IFCCARTESIANPOINT((400.,0.,-125.));
#138= IFCCARTESIANTRANSFORMATIONOPERATOR3D($,$,#137,$,$);
#139= IFCMAPPEDITEM(#114,#138);
#140= IFCCARTESIANPOINT((470.,0.,-125.));
#141= IFCCARTESIANTRANSFORMATIONOPERATOR3D($,$,#140,$,$);
#142= IFCMAPPEDITEM(#114,#141);
#143= IFCSHAPEREPRESENTATION(#12,'Body','MappedRepresentation',(#115,#118,#121,#124,#127,#130,#133,#136,#139,#142));
#144= IFCPRODUCTDEFINITIONSHAPE($,$,(#143));
#145= IFCCARTESIANPOINT((11500.,175.051591614756,290.000005483627));
#146= IFCAXIS2PLACEMENT3D(#145,#8,#9);
#147= IFCLOCALPLACEMENT(#45,#146);
#148= IFCMECHANICALFASTENER('2qIWogcfn7vBCVOMD9Efex',#44,'Bolt assembly',$,$,#147,#144,'IDb44a0caa-9a9c-47e4-b31f-6163493a9a3b',20.,50.);
#149= IFCMECHANICALFASTENERTYPE('3ZFlz$MBD8eB9wMCjUZ7Ey',#5,'Bolt assembly',$,$,$,$,$,$);
#150= IFCPROPERTYSINGLEVALUE('Washer count',$,IFCINTEGER(20),$);
#151= IFCPROPERTYSINGLEVALUE('Washer diameter',$,IFCLENGTHMEASURE(20.),$);
#152= IFCPROPERTYSINGLEVALUE('Washer type',$,IFCLABEL('11371'),$);
#153= IFCPROPERTYSINGLEVALUE('Washer name',$,IFCLABEL('\X2\04280430043904310430002000320030002D00310031003300370031\X0\'),$);
#154= IFCPROPERTYSINGLEVALUE('Nut count',$,IFCINTEGER(10),$);
#155= IFCPROPERTYSINGLEVALUE('Nut type',$,IFCLABEL('5915'),$);
#156= IFCPROPERTYSINGLEVALUE('Nut name',$,IFCLABEL('\X2\04130430043904040020002D0035003900310035\X0\'),$);
#157= IFCPROPERTYSINGLEVALUE('Slotted hole y',$,IFCLENGTHMEASURE(0.),$);
#158= IFCPROPERTYSINGLEVALUE('Slotted hole x',$,IFCLENGTHMEASURE(0.),$);
#159= IFCPROPERTYSINGLEVALUE('Bolt hole diameter',$,IFCLENGTHMEASURE(22.),$);
#160= IFCPROPERTYSINGLEVALUE('Location',$,IFCLABEL('\X2\041F043B043E044904300434043A0430\X0\'),$);
#161= IFCPROPERTYSINGLEVALUE('Bolt count',$,IFCINTEGER(10),$);
#162= IFCPROPERTYSINGLEVALUE('Bolt size',$,IFCLENGTHMEASURE(20.),$);
#163= IFCPROPERTYSINGLEVALUE('Bolt length',$,IFCLENGTHMEASURE(50.),$);
#164= IFCPROPERTYSINGLEVALUE('Bolt standard',$,IFCLABEL('7798'),$);
#165= IFCPROPERTYSINGLEVALUE('Bolt Name',$,IFCLABEL('\X2\0411043E043B0442041C00320030002A00350030\X0\'),$);
#166= IFCPROPERTYSET('0w47hhgUn1P9bEQtXJu$08',#5,'Tekla Bolt','Bolt Properties',(#150,#151,#152,#153,#154,#155,#156,#157,#158,#159,#160,#161,#162,#163,#164,#165));
#167= IFCMATERIAL('Undefined');
#168= IFCLOCALPLACEMENT(#42,#10);
#169= IFCELEMENTASSEMBLY('0mSpuj$P9BfuqTHF5qzqfg',#44,'\X2\04280430043904310430\X0\',$,$,#168,$,'\X2\04280031\X0\',.NOTDEFINED.,.NOTDEFINED.);
#170= IFCPROPERTYSINGLEVALUE('Assembly/Cast unit weight',$,IFCMASSMEASURE(0.6),$);
#171= IFCPROPERTYSINGLEVALUE('Assembly/Cast unit bottom elevation',$,IFCLABEL(' +0.190'),$);
#172= IFCPROPERTYSINGLEVALUE('Assembly/Cast unit top elevation',$,IFCLABEL(' +0.200'),$);
#173= IFCPROPERTYSINGLEVALUE('Assembly/Cast unit Mark',$,IFCLABEL('\X2\04280031\X0\'),$);
#174= IFCPROPERTYSET('2r1XqMGNn0JuXZgVh1GzhP',#5,'Tekla Assembly','Assembly Properties',(#47,#48,#49,#170,#171,#172,#53,#173));
#175= IFCQUANTITYLENGTH('Width',$,$,10.);
#176= IFCELEMENTQUANTITY('3w93VfgGX0ivUOkvgjmWPi',#5,'BaseQuantities',$,$,(#175));
#177= IFCCIRCLEPROFILEDEF(.AREA.,$,#68,12.5);
#178= IFCCARTESIANPOINT((0.,-10.,0.));
#179= IFCAXIS2PLACEMENT3D(#178,#8,#7);
#180= IFCEXTRUDEDAREASOLID(#177,#179,#9,10.1);
#181= IFCSTYLEDITEM(#180,(#65),$);
#182= IFCCARTESIANTRANSFORMATIONOPERATOR3D($,$,#6,$,$);
#183= IFCSHAPEREPRESENTATION(#12,'Body','SweptSolid',(#180));
#184= IFCREPRESENTATIONMAP(#10,#183);
#185= IFCMAPPEDITEM(#184,#182);
#186= IFCSHAPEREPRESENTATION(#12,'Body','MappedRepresentation',(#185));
#187= IFCPRODUCTDEFINITIONSHAPE($,$,(#186));
#188= IFCCARTESIANPOINT((11580.,425.051592125757,199.999985694885));
#189= IFCAXIS2PLACEMENT3D(#188,#7,#8);
#190= IFCLOCALPLACEMENT(#168,#189);
#191= IFCMECHANICALFASTENER('13zQC6D1zBYgdM98zLBQKj',#44,'Bolt assembly',$,$,#190,#187,'ID43f5a306-341f-4b8a-a9d6-248f552da52d',24.,10.);
#192= IFCPROPERTYSINGLEVALUE('Washer count',$,IFCINTEGER(0),$);
#193= IFCPROPERTYSINGLEVALUE('Washer diameter',$,IFCLENGTHMEASURE(24.),$);
#194= IFCPROPERTYSINGLEVALUE('Washer name',$,IFCLABEL('\X2\04280430043904310430002000320034002D00310031003300370031\X0\'),$);
#195= IFCPROPERTYSINGLEVALUE('Nut count',$,IFCINTEGER(0),$);
#196= IFCPROPERTYSINGLEVALUE('Nut name',$,IFCLABEL('\X2\04130430043904040024002D0035003900310035\X0\'),$);
#197= IFCPROPERTYSINGLEVALUE('Bolt hole diameter',$,IFCLENGTHMEASURE(25.),$);
#198= IFCPROPERTYSINGLEVALUE('Bolt count',$,IFCINTEGER(1),$);
#199= IFCPROPERTYSINGLEVALUE('Bolt size',$,IFCLENGTHMEASURE(25.),$);
#200= IFCPROPERTYSINGLEVALUE('Bolt length',$,IFCLENGTHMEASURE(10.),$);
#201= IFCPROPERTYSINGLEVALUE('Bolt Name',$,IFCLABEL('\X2\0411043E043B0442041C00320034002A00330035\X0\'),$);
#202= IFCPROPERTYSET('28s8WsvOX54wn7fqpyyo21',#5,'Tekla Bolt','Bolt Properties',(#192,#193,#152,#194,#195,#155,#196,#157,#158,#197,#160,#198,#199,#200,#164,#201));
#203= IFCLOCALPLACEMENT(#42,#10);
#204= IFCELEMENTASSEMBLY('3gi62BAUHDTvHRYnnwXh9m',#44,'\X2\04280430043904310430\X0\',$,$,#203,$,'\X2\04280033\X0\',.NOTDEFINED.,.NOTDEFINED.);
#205= IFCPROPERTYSINGLEVALUE('Assembly/Cast unit weight',$,IFCMASSMEASURE(1.1),$);
#206= IFCPROPERTYSINGLEVALUE('Assembly/Cast unit bottom elevation',$,IFCLABEL(' +0.220'),$);
#207= IFCPROPERTYSINGLEVALUE('Assembly/Cast unit top elevation',$,IFCLABEL(' +0.240'),$);
#208= IFCPROPERTYSINGLEVALUE('Assembly/Cast unit Mark',$,IFCLABEL('\X2\04280033\X0\'),$);
#209= IFCPROPERTYSET('2bA7O2sbPEnRRJVASIMCiF',#5,'Tekla Assembly','Assembly Properties',(#47,#48,#49,#205,#206,#207,#53,#208));
#210= IFCQUANTITYLENGTH('Width',$,$,20.);
#211= IFCELEMENTQUANTITY('2J056NSiHDcvCD3ZCkYyyw',#5,'BaseQuantities',$,$,(#210));
#212= IFCCARTESIANPOINT((0.,-20.,0.));
#213= IFCAXIS2PLACEMENT3D(#212,#8,#7);
#214= IFCEXTRUDEDAREASOLID(#177,#213,#9,20.1);
#215= IFCSTYLEDITEM(#214,(#65),$);
#216= IFCSHAPEREPRESENTATION(#12,'Body','SweptSolid',(#214));
#217= IFCREPRESENTATIONMAP(#10,#216);
#218= IFCMAPPEDITEM(#217,#182);
#219= IFCSHAPEREPRESENTATION(#12,'Body','MappedRepresentation',(#218));
#220= IFCPRODUCTDEFINITIONSHAPE($,$,(#219));
#221= IFCCARTESIANPOINT((11580.,425.051592125757,220.000014305115));
#222= IFCDIRECTION((-1.,0.,0.));
#223= IFCAXIS2PLACEMENT3D(#221,#222,#8);
#224= IFCLOCALPLACEMENT(#203,#223);
#225= IFCMECHANICALFASTENER('124N64Yxr1yBW_mS6OYU2w',#44,'Bolt assembly',$,$,#224,#220,'ID42117184-8bbd-41f0-b83e-c1c19889e0ba',24.,20.);
#226= IFCPROPERTYSINGLEVALUE('Bolt length',$,IFCLENGTHMEASURE(20.),$);
#227= IFCPROPERTYSET('3NUUnpzu15iudOU9FEs_Jh',#5,'Tekla Bolt','Bolt Properties',(#192,#193,#152,#194,#195,#155,#196,#157,#158,#197,#160,#198,#199,#226,#164,#201));
#228= IFCLOCALPLACEMENT(#42,#10);
#229= IFCELEMENTASSEMBLY('3HAt6bM8PFsBVrSR4XIJGr',#44,'\X2\04280430043904310430\X0\',$,$,#228,$,'\X2\04280031\X0\',.NOTDEFINED.,.NOTDEFINED.);
#230= IFCSHAPEREPRESENTATION(#12,'Body','MappedRepresentation',(#185));
#231= IFCPRODUCTDEFINITIONSHAPE($,$,(#230));
#232= IFCCARTESIANPOINT((11420.,425.051592125757,199.999985694885));
#233= IFCAXIS2PLACEMENT3D(#232,#7,#8);
#234= IFCLOCALPLACEMENT(#228,#233);
#235= IFCMECHANICALFASTENER('08NtujHo535ha2nIjsGVvD',#44,'Bolt assembly',$,$,#234,#231,'ID085f7e2d-4721-4316-b902-c52b7641fe4d',24.,10.);
#236= IFCLOCALPLACEMENT(#42,#10);
#237= IFCELEMENTASSEMBLY('3RdJg29LbD$e0493xmrfr8',#44,'\X2\04280430043904310430\X0\',$,$,#236,$,'\X2\04280033\X0\',.NOTDEFINED.,.NOTDEFINED.);
#238= IFCSHAPEREPRESENTATION(#12,'Body','MappedRepresentation',(#218));
#239= IFCPRODUCTDEFINITIONSHAPE($,$,(#238));
#240= IFCCARTESIANPOINT((11420.,425.051592125757,220.000014305115));
#241= IFCAXIS2PLACEMENT3D(#240,#222,#8);
#242= IFCLOCALPLACEMENT(#236,#241);
#243= IFCMECHANICALFASTENER('0GWF99iSf7DBfH2Ayij91j',#44,'Bolt assembly',$,$,#242,#239,'ID1080f249-b1ca-4734-ba51-08af2cb4906d',24.,20.);
#244= IFCLOCALPLACEMENT(#42,#10);
#245= IFCELEMENTASSEMBLY('0fGOczxpf7eBYumaKmc$DP',#44,'\X2\04280430043904310430\X0\',$,$,#244,$,'\X2\04280031\X0\',.NOTDEFINED.,.NOTDEFINED.);
#246= IFCSHAPEREPRESENTATION(#12,'Body','MappedRepresentation',(#185));
#247= IFCPRODUCTDEFINITIONSHAPE($,$,(#246));
#248= IFCCARTESIANPOINT((11580.,-74.9484078742425,199.999985694885));
#249= IFCAXIS2PLACEMENT3D(#248,#7,#8);
#250= IFCLOCALPLACEMENT(#244,#249);
#251= IFCMECHANICALFASTENER('3CXNKFyB98MfPQVSEhnhze',#44,'Bolt assembly',$,$,#250,#247,'IDcc85750f-f0b2-485a-965a-7dc3abc6bf68',24.,10.);
#252= IFCLOCALPLACEMENT(#42,#10);
#253= IFCELEMENTASSEMBLY('3GX7Wu8avATRN_a5Y3B96M',#44,'\X2\04280430043904310430\X0\',$,$,#252,$,'\X2\04280033\X0\',.NOTDEFINED.,.NOTDEFINED.);
#254= IFCSHAPEREPRESENTATION(#12,'Body','MappedRepresentation',(#218));
#255= IFCPRODUCTDEFINITIONSHAPE($,$,(#254));
#256= IFCCARTESIANPOINT((11580.,-74.9484078742425,220.000014305115));
#257= IFCAXIS2PLACEMENT3D(#256,#222,#8);
#258= IFCLOCALPLACEMENT(#252,#257);
#259= IFCMECHANICALFASTENER('0xXxbG4tP0XhfivFhFAixu',#44,'Bolt assembly',$,$,#258,#255,'ID3b87b950-1376-4086-ba6c-e4facf2acef8',24.,20.);
#260= IFCLOCALPLACEMENT(#42,#10);
#261= IFCELEMENTASSEMBLY('0QrUSOFibC99ulN8FaRtO6',#44,'\X2\04280430043904310430\X0\',$,$,#260,$,'\X2\04280031\X0\',.NOTDEFINED.,.NOTDEFINED.);
#262= IFCSHAPEREPRESENTATION(#12,'Body','MappedRepresentation',(#185));
#263= IFCPRODUCTDEFINITIONSHAPE($,$,(#262));
#264= IFCCARTESIANPOINT((11420.,-74.9484078742425,199.999985694885));
#265= IFCAXIS2PLACEMENT3D(#264,#7,#8);
#266= IFCLOCALPLACEMENT(#260,#265);
#267= IFCMECHANICALFASTENER('2y$Hrhn$b8JQMb9QU1sztF',#44,'Bolt assembly',$,$,#266,#263,'IDbcfd1d6b-c7f9-484d-a5a5-25a781dbddcf',24.,10.);
#268= IFCLOCALPLACEMENT(#42,#10);
#269= IFCELEMENTASSEMBLY('0g2yw6zf15XBM9f0eDDku_',#44,'\X2\04280430043904310430\X0\',$,$,#268,$,'\X2\04280033\X0\',.NOTDEFINED.,.NOTDEFINED.);
#270= IFCSHAPEREPRESENTATION(#12,'Body','MappedRepresentation',(#218));
#271= IFCPRODUCTDEFINITIONSHAPE($,$,(#270));
#272= IFCCARTESIANPOINT((11420.,-74.9484078742425,220.000014305115));
#273= IFCAXIS2PLACEMENT3D(#272,#222,#8);
#274= IFCLOCALPLACEMENT(#268,#273);
#275= IFCMECHANICALFASTENER('0efMKPXIH3IQOpuLP9A5kR',#44,'Bolt assembly',$,$,#274,#271,'ID28a56519-8524-4349-a633-e15649285b9b',24.,20.);
#276= IFCCIRCLEPROFILEDEF(.AREA.,$,#68,18.);
#277= IFCAXIS2PLACEMENT3D(#6,#8,#7);
#278= IFCEXTRUDEDAREASOLID(#276,#277,#9,20.1);
#279= IFCSTYLEDITEM(#278,(#65),$);
#280= IFCCARTESIANPOINT((0.,0.,80.));
#281= IFCCARTESIANTRANSFORMATIONOPERATOR3D($,$,#280,$,$);
#282= IFCSHAPEREPRESENTATION(#12,'Body','SweptSolid',(#278));
#283= IFCREPRESENTATIONMAP(#10,#282);
#284= IFCMAPPEDITEM(#283,#281);
#285= IFCCARTESIANPOINT((500.,0.,80.));
#286= IFCCARTESIANTRANSFORMATIONOPERATOR3D($,$,#285,$,$);
#287= IFCMAPPEDITEM(#283,#286);
#288= IFCCARTESIANPOINT((0.,0.,-80.));
#289= IFCCARTESIANTRANSFORMATIONOPERATOR3D($,$,#288,$,$);
#290= IFCMAPPEDITEM(#283,#289);
#291= IFCCARTESIANPOINT((500.,0.,-80.));
#292= IFCCARTESIANTRANSFORMATIONOPERATOR3D($,$,#291,$,$);
#293= IFCMAPPEDITEM(#283,#292);
#294= IFCSHAPEREPRESENTATION(#12,'Body','MappedRepresentation',(#284,#287,#290,#293));
#295= IFCPRODUCTDEFINITIONSHAPE($,$,(#294));
#296= IFCCARTESIANPOINT((11500.,-74.9484078742425,200.000005483627));
#297= IFCAXIS2PLACEMENT3D(#296,#7,#8);
#298= IFCLOCALPLACEMENT(#45,#297);
#299= IFCMECHANICALFASTENER('3QxqeHZO14LgkZ7xXhGmNi',#44,'Bolt assembly',$,$,#298,#295,'IDdaef4a11-8d80-4456-aba3-1fb86b4305ec',36.,30.);
#300= IFCPROPERTYSINGLEVALUE('Washer diameter',$,IFCLENGTHMEASURE(36.),$);
#301= IFCPROPERTYSINGLEVALUE('Washer name',$,IFCLABEL('\X2\04280430043904310430002000330036002D00310031003300370031\X0\'),$);
#302= IFCPROPERTYSINGLEVALUE('Nut name',$,IFCLABEL('\X2\04130430043900A6002D0035003900310035\X0\'),$);
#303= IFCPROPERTYSINGLEVALUE('Bolt hole diameter',$,IFCLENGTHMEASURE(36.),$);
#304= IFCPROPERTYSINGLEVALUE('Bolt count',$,IFCINTEGER(4),$);
#305= IFCPROPERTYSINGLEVALUE('Bolt size',$,IFCLENGTHMEASURE(36.),$);
#306= IFCPROPERTYSINGLEVALUE('Bolt length',$,IFCLENGTHMEASURE(30.),$);
#307= IFCPROPERTYSINGLEVALUE('Bolt Name',$,IFCLABEL('\X2\0411043E043B0442041C00330036002A00350030\X0\'),$);
#308= IFCPROPERTYSET('0Q5fQUoCb0pQ3CUggh7OL$',#5,'Tekla Bolt','Bolt Properties',(#192,#300,#152,#301,#195,#155,#302,#157,#158,#303,#160,#304,#305,#306,#164,#307));
#309= IFCCOLOURRGB('Light Gray',0.615686274509804,0.615686274509804,0.611764705882353);
#310= IFCSURFACESTYLERENDERING(#309,0.,$,$,$,$,IFCNORMALISEDRATIOMEASURE(0.00390625),IFCSPECULAREXPONENT(10.),.NOTDEFINED.);
#311= IFCSURFACESTYLE('\X2\0053005400450045004C002F0421003300340035\X0\',.POSITIVE.,(#310));
#312= IFCPRESENTATIONSTYLEASSIGNMENT((#311));
#313= IFCCARTESIANPOINT((150.,0.));
#314= IFCCARTESIANPOINT((150.,129.));
#315= IFCCARTESIANPOINT((100.,129.));
#316= IFCCARTESIANPOINT((0.,50.));
#317= IFCPOLYLINE((#67,#313,#314,#315,#316,#67));
#318= IFCARBITRARYCLOSEDPROFILEDEF(.AREA.,'PL10*129',#317);
#319= IFCCARTESIANPOINT((0.,0.,-5.));
#320= IFCAXIS2PLACEMENT3D(#319,#9,#7);
#321= IFCEXTRUDEDAREASOLID(#318,#320,#9,10.);
#322= IFCSHAPEREPRESENTATION(#12,'Body','SweptSolid',(#321));
#323= IFCSTYLEDITEM(#321,(#312),$);
#324= IFCPRODUCTDEFINITIONSHAPE($,$,(#322));
#325= IFCCARTESIANPOINT((11494.,360.051592125776,369.999999046325));
#326= IFCDIRECTION((0.,0.,-1.));
#327= IFCAXIS2PLACEMENT3D(#325,#8,#326);
#328= IFCLOCALPLACEMENT(#45,#327);
#329= IFCPLATE('2PXQz_Xdn2qh6IOphRCKni',#44,'\X2\04110430043704300020043A043E043B043E043D043D044B\X0\','PL10*129',$,#328,#324,'ID9985af7e-867c-42d2-b192-633adb314c6c');
#330= IFCPLATETYPE('2eCrqE$pr78ByRsD7Y$Tnk',#5,'PL10*129',$,$,$,$,$,$,.NOTDEFINED.);
#331= IFCPROPERTYSINGLEVALUE('Finish',$,IFCLABEL(''),$);
#332= IFCPROPERTYSINGLEVALUE('Bottom elevation',$,IFCLABEL(' +0.220'),$);
#333= IFCPROPERTYSINGLEVALUE('Top elevation',$,IFCLABEL(' +0.370'),$);
#334= IFCPROPERTYSINGLEVALUE('Initial GUID',$,$,$);
#335= IFCPROPERTYSINGLEVALUE('Preliminary mark',$,IFCLABEL(''),$);
#336= IFCPROPERTYSINGLEVALUE('Phase',$,IFCINTEGER(1),$);
#337= IFCPROPERTYSINGLEVALUE('Class',$,IFCLABEL('1'),$);
#338= IFCPROPERTYSET('2u18bhxB5EXOa$NH9wc1Qm',#5,'Tekla Common','Common Properties to Shared building elements',(#331,#332,#333,#334,#335,#336,#337));
#339= IFCPROPERTYSINGLEVALUE('Weight',$,IFCMASSMEASURE(1.21),$);
#340= IFCPROPERTYSINGLEVALUE('Volume',$,IFCVOLUMEMEASURE(0.),$);
#341= IFCPROPERTYSINGLEVALUE('Gross footprint area',$,IFCAREAMEASURE(0.001),$);
#342= IFCPROPERTYSINGLEVALUE('Area per tons',$,IFCAREAMEASURE(29.667),$);
#343= IFCPROPERTYSINGLEVALUE('Net surface area',$,IFCAREAMEASURE(0.036),$);
#344= IFCPROPERTYSINGLEVALUE('Height',$,IFCLENGTHMEASURE(129.),$);
#345= IFCPROPERTYSINGLEVALUE('Width',$,IFCLENGTHMEASURE(10.),$);
#346= IFCPROPERTYSINGLEVALUE('Length',$,IFCLENGTHMEASURE(150.),$);
#347= IFCPROPERTYSET('3JUGj6SmnB1gcbqdWEtj3q',#5,'Tekla Quantity','Quantity Properties to Shared building elements',(#339,#340,#341,#342,#343,#344,#345,#346));
#348= IFCPROPERTYSINGLEVALUE('LoadBearing',$,IFCBOOLEAN(.F.),$);
#349= IFCPROPERTYSINGLEVALUE('Reference',$,IFCIDENTIFIER('21(?)'),$);
#350= IFCPROPERTYSET('04WX1QFVDBfeKp7AnYawSD',#5,'Pset_PlateCommon','Common Properties to plate elements',(#348,#349));
#351= IFCQUANTITYLENGTH('Width',$,$,129.);
#352= IFCQUANTITYAREA('NetArea',$,$,0.0358644054432569);
#353= IFCQUANTITYAREA('GrossArea',$,$,0.0193500019683838);
#354= IFCQUANTITYAREA('CrossSectionArea',$,$,0.0001);
#355= IFCQUANTITYVOLUME('NetVolume',$,$,0.000154000016670227);
#356= IFCQUANTITYVOLUME('GrossVolume',$,$,0.000154000016670227);
#357= IFCELEMENTQUANTITY('2SlF325Yv5QQZysnNzECyS',#5,'BaseQuantities',$,$,(#351,#352,#353,#354,#355,#356));
#358= IFCMATERIAL('\X2\0053005400450045004C002F0421003300340035\X0\');
#359= IFCSHAPEREPRESENTATION(#12,'Body','SweptSolid',(#321));
#360= IFCPRODUCTDEFINITIONSHAPE($,$,(#359));
#361= IFCCARTESIANPOINT((11494.,-9.94840787424255,370.000014305115));
#362= IFCAXIS2PLACEMENT3D(#361,#8,#326);
#363= IFCLOCALPLACEMENT(#45,#362);
#364= IFCPLATE('29LXSt9mj0LujNYqn$jK56',#44,'\X2\04110430043704300020043A043E043B043E043D043D044B\X0\','PL10*129',$,#363,#360,'ID89561737-270b-4057-8b57-8b4c7fb54146');
#365= IFCPROPERTYSINGLEVALUE('Reference',$,IFCIDENTIFIER('20(?)'),$);
#366= IFCPROPERTYSET('2ai05HyGD6q9Kz2HqvJQ5v',#5,'Pset_PlateCommon','Common Properties to plate elements',(#348,#365));
#367= IFCSHAPEREPRESENTATION(#12,'Body','SweptSolid',(#321));
#368= IFCPRODUCTDEFINITIONSHAPE($,$,(#367));
#369= IFCCARTESIANPOINT((11506.,360.051592125757,369.999999046322));
#370= IFCDIRECTION((0.,-1.,0.));
#371= IFCAXIS2PLACEMENT3D(#369,#370,#326);
#372= IFCLOCALPLACEMENT(#45,#371);
#373= IFCPLATE('1vDzN1ooD8PvpcQIEvAxT$',#44,'\X2\04110430043704300020043A043E043B043E043D043D044B\X0\','PL10*129',$,#372,#368,'ID7937d5c1-cb23-4867-9ce6-6923b92bb77f');
#374= IFCSHAPEREPRESENTATION(#12,'Body','SweptSolid',(#321));
#375= IFCPRODUCTDEFINITIONSHAPE($,$,(#374));
#376= IFCCARTESIANPOINT((11506.,-9.94840787424255,370.000014305115));
#377= IFCAXIS2PLACEMENT3D(#376,#370,#326);
#378= IFCLOCALPLACEMENT(#45,#377);
#379= IFCPLATE('28NZLmpXrDcPMoF5okpPin',#44,'\X2\04110430043704300020043A043E043B043E043D043D044B\X0\','PL10*129',$,#378,#375,'ID885e3570-ce1d-4d99-95b2-3c5caecd9b31');
#380= IFCCARTESIANPOINT((610.,0.));
#381= IFCCARTESIANPOINT((610.,50.));
#382= IFCCARTESIANPOINT((508.324620682706,136.033013268479));
#383= IFCPOLYLINE((#67,#380,#381,#382));
#384= IFCCOMPOSITECURVESEGMENT(.CONTINUOUS.,.T.,#383);
#385= IFCDIRECTION((-0.645942241466185,-0.763386285369105));
#386= IFCCARTESIANPOINT((560.000000000003,197.10391609801));
#387= IFCAXIS2PLACEMENT2D(#386,#385);
#388= IFCCIRCLE(#387,80.);
#389= IFCTRIMMEDCURVE(#388,(IFCPARAMETERVALUE(0.)),(IFCPARAMETERVALUE(5.41464591189373)),.F.,.PARAMETER.);
#390= IFCCOMPOSITECURVESEGMENT(.CONTINUOUS.,.T.,#389);
#391= IFCCARTESIANPOINT((480.,197.103916098009));
#392= IFCCARTESIANPOINT((480.,590.));
#393= IFCCARTESIANPOINT((130.,590.));
#394= IFCCARTESIANPOINT((130.,197.103916098009));
#395= IFCPOLYLINE((#391,#392,#393,#394));
#396= IFCCOMPOSITECURVESEGMENT(.CONTINUOUS.,.T.,#395);
#397= IFCCARTESIANPOINT((49.9999999999998,197.103916098009));
#398= IFCAXIS2PLACEMENT2D(#397,#66);
#399= IFCCIRCLE(#398,80.);
#400= IFCTRIMMEDCURVE(#399,(IFCPARAMETERVALUE(0.)),(IFCPARAMETERVALUE(5.4146459118937)),.F.,.PARAMETER.);
#401= IFCCOMPOSITECURVESEGMENT(.CONTINUOUS.,.T.,#400);
#402= IFCCARTESIANPOINT((101.675379317294,136.033013268479));
#403= IFCPOLYLINE((#402,#316,#67));
#404= IFCCOMPOSITECURVESEGMENT(.CONTINUOUS.,.T.,#403);
#405= IFCCOMPOSITECURVE((#384,#390,#396,#401,#404),.T.);
#406= IFCARBITRARYCLOSEDPROFILEDEF(.AREA.,'PL12*590',#405);
#407= IFCCARTESIANPOINT((0.,0.,-6.));
#408= IFCAXIS2PLACEMENT3D(#407,#9,#7);
#409= IFCEXTRUDEDAREASOLID(#406,#408,#9,12.);
#410= IFCSHAPEREPRESENTATION(#12,'Body','SweptSolid',(#409));
#411= IFCSTYLEDITEM(#409,(#312),$);
#412= IFCPRODUCTDEFINITIONSHAPE($,$,(#410));
#413= IFCCARTESIANPOINT((11500.,-129.948407874243,220.000005483627));
#414= IFCAXIS2PLACEMENT3D(#413,#7,#8);
#415= IFCLOCALPLACEMENT(#45,#414);
#416= IFCPLATE('2ZpkPhGk96VQC3WWBHyIrd',#44,'\X2\04110430043704300020043A043E043B043E043D043D044B\X0\','PL12*590',$,#415,#412,'IDa3cee66b-42e2-467d-a303-8202d1f12d67');
#417= IFCPLATETYPE('1YqtiakEr999Xc7QSRNiJl',#5,'PL12*590',$,$,$,$,$,$,.NOTDEFINED.);
#418= IFCPROPERTYSINGLEVALUE('Top elevation',$,IFCLABEL(' +0.810'),$);
#419= IFCPROPERTYSET('2o_AmCYdH2pv7pca6e6HCd',#5,'Tekla Common','Common Properties to Shared building elements',(#331,#332,#418,#334,#335,#336,#337));
#420= IFCPROPERTYSINGLEVALUE('Weight',$,IFCMASSMEASURE(22.06),$);
#421= IFCPROPERTYSINGLEVALUE('Volume',$,IFCVOLUMEMEASURE(0.003),$);
#422= IFCPROPERTYSINGLEVALUE('Gross footprint area',$,IFCAREAMEASURE(0.004),$);
#423= IFCPROPERTYSINGLEVALUE('Area per tons',$,IFCAREAMEASURE(22.456),$);
#424= IFCPROPERTYSINGLEVALUE('Net surface area',$,IFCAREAMEASURE(0.495),$);
#425= IFCPROPERTYSINGLEVALUE('Height',$,IFCLENGTHMEASURE(590.),$);
#426= IFCPROPERTYSINGLEVALUE('Width',$,IFCLENGTHMEASURE(12.),$);
#427= IFCPROPERTYSINGLEVALUE('Length',$,IFCLENGTHMEASURE(610.),$);
#428= IFCPROPERTYSET('3ZUkFfr3X1D9D4ciqOZ$bq',#5,'Tekla Quantity','Quantity Properties to Shared building elements',(#420,#421,#422,#423,#424,#425,#426,#427));
#429= IFCPROPERTYSINGLEVALUE('Reference',$,IFCIDENTIFIER('36(?)'),$);
#430= IFCPROPERTYSET('24x_A4MeTD39Do5xJIDLIx',#5,'Pset_PlateCommon','Common Properties to plate elements',(#348,#429));
#431= IFCQUANTITYLENGTH('Width',$,$,590.);
#432= IFCQUANTITYAREA('NetArea',$,$,0.495453488478445);
#433= IFCQUANTITYAREA('GrossArea',$,$,0.3599);
#434= IFCQUANTITYAREA('CrossSectionArea',$,$,0.000144);
#435= IFCQUANTITYVOLUME('NetVolume',$,$,0.0028106586126846);
#436= IFCQUANTITYVOLUME('GrossVolume',$,$,0.0028106586126846);
#437= IFCELEMENTQUANTITY('2OOp8pLer6dukXg2hJgW8V',#5,'BaseQuantities',$,$,(#431,#432,#433,#434,#435,#436));
#438= IFCLOCALPLACEMENT(#42,#10);
#439= IFCELEMENTASSEMBLY('2gzKMbsI5CmfOfIs0ZOYvi',#44,'\X2\041A043E043B043E043D043D0430\X0\',$,$,#438,$,'\X2\041A00310028003F0029\X0\',.NOTDEFINED.,.NOTDEFINED.);
#440= IFCPROPERTYSINGLEVALUE('Assembly/Cast unit weight',$,IFCMASSMEASURE(10.6),$);
#441= IFCPROPERTYSINGLEVALUE('Assembly/Cast unit bottom elevation',$,IFCLABEL(' +0.240'),$);
#442= IFCPROPERTYSINGLEVALUE('Assembly/Cast unit top elevation',$,IFCLABEL(' +0.890'),$);
#443= IFCPROPERTYSINGLEVALUE('Assembly/Cast unit Mark',$,IFCLABEL('\X2\041A00310028003F0029\X0\'),$);
#444= IFCPROPERTYSET('10NrJ5m6r7Qw7RhG5sxK0T',#5,'Tekla Assembly','Assembly Properties',(#47,#48,#49,#440,#441,#442,#53,#443));
#445= IFCQUANTITYLENGTH('Width',$,$,100.);
#446= IFCELEMENTQUANTITY('0RHMnDEcv2zB5IVEvrnJ4F',#5,'BaseQuantities',$,$,(#445));
#447= IFCCOLOURRGB('Light Red',0.905882352941176,0.325490196078431,0.36078431372549);
#448= IFCSURFACESTYLERENDERING(#447,0.,$,$,$,$,IFCNORMALISEDRATIOMEASURE(0.00390625),IFCSPECULAREXPONENT(10.),.NOTDEFINED.);
#449= IFCSURFACESTYLE('\X2\0053005400450045004C002F0421003300390030\X0\',.POSITIVE.,(#448));
#450= IFCPRESENTATIONSTYLEASSIGNMENT((#449));
#451= IFCCARTESIANPOINT((49.6207206919025,170.272896284433));
#452= IFCCARTESIANPOINT((49.7858018615734,169.718398409986));
#453= IFCCARTESIANPOINT((49.9045291238181,169.152162131965));
#454= IFCCARTESIANPOINT((49.9760914510443,168.578055418306));
#455= IFCCARTESIANPOINT((49.9999999999982,168.));
#456= IFCCARTESIANPOINT((49.9999999999982,149.));
#457= IFCCARTESIANPOINT((46.4999999999982,149.));
#458= IFCCARTESIANPOINT((46.4999999999982,167.927650393042));
#459= IFCCARTESIANPOINT((46.4850635442126,168.288780598565));
#460= IFCCARTESIANPOINT((46.4493129724906,168.575588532821));
#461= IFCCARTESIANPOINT((46.3900000956091,168.85846461376));
#462= IFCCARTESIANPOINT((46.3075300806595,169.135476510915));
#463= IFCCARTESIANPOINT((46.2024662814674,169.404731952142));
#464= IFCCARTESIANPOINT((46.0755263903156,169.664391649757));
#465= IFCCARTESIANPOINT((45.9275775353744,169.912681864733));
#466= IFCCARTESIANPOINT((45.7596303573428,170.147906523139));
#467= IFCCARTESIANPOINT((45.5728321057413,170.368458802043));
#468= IFCCARTESIANPOINT((45.3684588020405,170.572832105744));
#469= IFCCARTESIANPOINT((45.147906523136,170.759630357344));
#470= IFCCARTESIANPOINT((44.912681864731,170.927577535376));
#471= IFCCARTESIANPOINT((44.6643916497542,171.075526390317));
#472= IFCCARTESIANPOINT((44.4047319521396,171.20246628147));
#473= IFCCARTESIANPOINT((44.1354765109136,171.307530080661));
#474= IFCCARTESIANPOINT((43.8584646137588,171.390000095611));
#475= IFCCARTESIANPOINT((43.5755885328199,171.449312972492));
#476= IFCCARTESIANPOINT((43.2887805985629,171.485063544214));
#477= IFCCARTESIANPOINT((42.9276503930396,171.5));
#478= IFCCARTESIANPOINT((-42.9276503930414,171.5));
#479= IFCCARTESIANPOINT((-43.2887805985647,171.485063544214));
#480= IFCCARTESIANPOINT((-43.5755885328217,171.449312972492));
#481= IFCCARTESIANPOINT((-43.8584646137606,171.390000095611));
#482= IFCCARTESIANPOINT((-44.1354765109154,171.307530080661));
#483= IFCCARTESIANPOINT((-44.4047319521414,171.20246628147));
#484= IFCCARTESIANPOINT((-44.664391649756,171.075526390317));
#485= IFCCARTESIANPOINT((-44.9126818647328,170.927577535376));
#486= IFCCARTESIANPOINT((-45.1479065231379,170.759630357344));
#487= IFCCARTESIANPOINT((-45.3684588020424,170.572832105744));
#488= IFCCARTESIANPOINT((-45.5728321057431,170.368458802043));
#489= IFCCARTESIANPOINT((-45.7596303573446,170.147906523139));
#490= IFCCARTESIANPOINT((-45.9275775353763,169.912681864733));
#491= IFCCARTESIANPOINT((-46.0755263903175,169.664391649757));
#492= IFCCARTESIANPOINT((-46.2024662814692,169.404731952142));
#493= IFCCARTESIANPOINT((-46.3075300806613,169.135476510915));
#494= IFCCARTESIANPOINT((-46.390000095611,168.85846461376));
#495= IFCCARTESIANPOINT((-46.4493129724924,168.575588532821));
#496= IFCCARTESIANPOINT((-46.4850635442144,168.288780598565));
#497= IFCCARTESIANPOINT((-46.5,167.927650393042));
#498= IFCCARTESIANPOINT((-46.5,38.768207437926));
#499= IFCCARTESIANPOINT((-46.4854073492661,38.4112488582935));
#500= IFCCARTESIANPOINT((-46.4504774983943,38.1277063105467));
#501= IFCCARTESIANPOINT((-46.3925201511302,37.8479610393397));
#502= IFCCARTESIANPOINT((-46.3119220981735,37.5738799843135));
#503= IFCCARTESIANPOINT((-46.2092212277948,37.3072922837563));
#504= IFCCARTESIANPOINT((-46.0851029361256,37.0499770674601));
#505= IFCCARTESIANPOINT((-45.9403955530142,36.8036515833179));
#506= IFCCARTESIANPOINT((-45.7760648140011,36.569959736905));
#507= IFCCARTESIANPOINT((-45.5473975194527,36.2954717746334));
#508= IFCCARTESIANPOINT((-29.390503949091,18.4378525652864));
#509= IFCCARTESIANPOINT((-29.0439961414668,18.0219110454766));
#510= IFCCARTESIANPOINT((-28.6914270981561,17.5205288256083));
#511= IFCCARTESIANPOINT((-28.3809596595656,16.9920413325907));
#512= IFCCARTESIANPOINT((-28.1146657962618,16.439975540254));
#513= IFCCARTESIANPOINT((-27.8943226770534,15.8680157772302));
#514= IFCCARTESIANPOINT((-27.7214008086667,15.2799791388008));
#515= IFCCARTESIANPOINT((-27.5970542220184,14.6797900126995));
#516= IFCCARTESIANPOINT((-27.5221127705336,14.0714538888743));
#517= IFCCARTESIANPOINT((-27.5,13.5305416649187));
#518= IFCCARTESIANPOINT((-27.5,-13.5305416649186));
#519= IFCCARTESIANPOINT((-27.5221127705336,-14.0714538888743));
#520= IFCCARTESIANPOINT((-27.5970542220184,-14.6797900126995));
#521= IFCCARTESIANPOINT((-27.7214008086667,-15.2799791388008));
#522= IFCCARTESIANPOINT((-27.8943226770534,-15.8680157772301));
#523= IFCCARTESIANPOINT((-28.1146657962618,-16.439975540254));
#524= IFCCARTESIANPOINT((-28.3809596595656,-16.9920413325907));
#525= IFCCARTESIANPOINT((-28.6914270981561,-17.5205288256083));
#526= IFCCARTESIANPOINT((-29.0439961414668,-18.0219110454767));
#527= IFCCARTESIANPOINT((-29.390503949091,-18.4378525652864));
#528= IFCCARTESIANPOINT((-45.5473975194527,-36.2954717746334));
#529= IFCCARTESIANPOINT((-45.7760648140011,-36.5699597369051));
#530= IFCCARTESIANPOINT((-45.9403955530142,-36.8036515833179));
#531= IFCCARTESIANPOINT((-46.0851029361256,-37.0499770674601));
#532= IFCCARTESIANPOINT((-46.2092212277967,-37.3072922837564));
#533= IFCCARTESIANPOINT((-46.3119220981735,-37.5738799843134));
#534= IFCCARTESIANPOINT((-46.3925201511302,-37.8479610393396));
#535= IFCCARTESIANPOINT((-46.4504774983943,-38.1277063105468));
#536= IFCCARTESIANPOINT((-46.4854073492661,-38.4112488582935));
#537= IFCCARTESIANPOINT((-46.5,-38.7682074379259));
#538= IFCCARTESIANPOINT((-46.5,-167.927650393042));
#539= IFCCARTESIANPOINT((-46.4850635442144,-168.288780598565));
#540= IFCCARTESIANPOINT((-46.4493129724924,-168.575588532821));
#541= IFCCARTESIANPOINT((-46.390000095611,-168.85846461376));
#542= IFCCARTESIANPOINT((-46.3075300806613,-169.135476510915));
#543= IFCCARTESIANPOINT((-46.2024662814692,-169.404731952142));
#544= IFCCARTESIANPOINT((-46.0755263903175,-169.664391649757));
#545= IFCCARTESIANPOINT((-45.9275775353763,-169.912681864733));
#546= IFCCARTESIANPOINT((-45.7596303573446,-170.147906523139));
#547= IFCCARTESIANPOINT((-45.5728321057431,-170.368458802043));
#548= IFCCARTESIANPOINT((-45.3684588020424,-170.572832105744));
#549= IFCCARTESIANPOINT((-45.1479065231379,-170.759630357344));
#550= IFCCARTESIANPOINT((-44.9126818647328,-170.927577535377));
#551= IFCCARTESIANPOINT((-44.664391649756,-171.075526390317));
#552= IFCCARTESIANPOINT((-44.4047319521414,-171.20246628147));
#553= IFCCARTESIANPOINT((-44.1354765109154,-171.307530080661));
#554= IFCCARTESIANPOINT((-43.8584646137606,-171.390000095611));
#555= IFCCARTESIANPOINT((-43.5755885328217,-171.449312972492));
#556= IFCCARTESIANPOINT((-43.2887805985647,-171.485063544214));
#557= IFCCARTESIANPOINT((-42.9276503930414,-171.5));
#558= IFCCARTESIANPOINT((42.9276503930414,-171.5));
#559= IFCCARTESIANPOINT((43.2887805985647,-171.485063544214));
#560= IFCCARTESIANPOINT((43.5755885328217,-171.449312972492));
#561= IFCCARTESIANPOINT((43.8584646137606,-171.390000095611));
#562= IFCCARTESIANPOINT((44.1354765109154,-171.307530080661));
#563= IFCCARTESIANPOINT((44.4047319521414,-171.20246628147));
#564= IFCCARTESIANPOINT((44.664391649756,-171.075526390317));
#565= IFCCARTESIANPOINT((44.9126818647328,-170.927577535377));
#566= IFCCARTESIANPOINT((45.1479065231379,-170.759630357344));
#567= IFCCARTESIANPOINT((45.3684588020424,-170.572832105744));
#568= IFCCARTESIANPOINT((45.5728321057431,-170.368458802043));
#569= IFCCARTESIANPOINT((45.7596303573446,-170.147906523139));
#570= IFCCARTESIANPOINT((45.9275775353763,-169.912681864733));
#571= IFCCARTESIANPOINT((46.0755263903175,-169.664391649757));
#572= IFCCARTESIANPOINT((46.2024662814692,-169.404731952142));
#573= IFCCARTESIANPOINT((46.3075300806613,-169.135476510915));
#574= IFCCARTESIANPOINT((46.390000095611,-168.85846461376));
#575= IFCCARTESIANPOINT((46.4493129724924,-168.575588532821));
#576= IFCCARTESIANPOINT((46.4850635442144,-168.288780598565));
#577= IFCCARTESIANPOINT((46.5,-167.927650393042));
#578= IFCCARTESIANPOINT((46.5,-149.));
#579= IFCCARTESIANPOINT((50.,-149.));
#580= IFCCARTESIANPOINT((50.,-168.));
#581= IFCCARTESIANPOINT((49.9760914510462,-168.578055418306));
#582= IFCCARTESIANPOINT((49.9045291238199,-169.152162131965));
#583= IFCCARTESIANPOINT((49.7858018615752,-169.718398409986));
#584= IFCCARTESIANPOINT((49.6207206919044,-170.272896284433));
#585= IFCCARTESIANPOINT((49.410413286585,-170.811867972571));
#586= IFCCARTESIANPOINT((49.1563162584462,-171.33163175126));
#587= IFCCARTESIANPOINT((48.8601653478381,-171.828637106857));
#588= IFCCARTESIANPOINT((48.523983565774,-172.299488988828));
#589= IFCCARTESIANPOINT((48.1500673747123,-172.74097100138));
#590= IFCCARTESIANPOINT((47.7409710013799,-173.150067374712));
#591= IFCCARTESIANPOINT((47.2994889888269,-173.523983565775));
#592= IFCCARTESIANPOINT((46.8286371068571,-173.860165347838));
#593= IFCCARTESIANPOINT((46.3316317512599,-174.156316258445));
#594= IFCCARTESIANPOINT((45.8118679725703,-174.410413286585));
#595= IFCCARTESIANPOINT((45.2728962844321,-174.620720691904));
#596= IFCCARTESIANPOINT((44.7183984099847,-174.785801861575));
#597= IFCCARTESIANPOINT((44.1521621319644,-174.904529123819));
#598= IFCCARTESIANPOINT((43.5780554183057,-174.976091451047));
#599= IFCCARTESIANPOINT((43.,-175.));
#600= IFCCARTESIANPOINT((-43.,-175.));
#601= IFCCARTESIANPOINT((-43.5780554183057,-174.976091451047));
#602= IFCCARTESIANPOINT((-44.1521621319644,-174.904529123819));
#603= IFCCARTESIANPOINT((-44.7183984099847,-174.785801861575));
#604= IFCCARTESIANPOINT((-45.2728962844321,-174.620720691904));
#605= IFCCARTESIANPOINT((-45.8118679725703,-174.410413286585));
#606= IFCCARTESIANPOINT((-46.3316317512599,-174.156316258445));
#607= IFCCARTESIANPOINT((-46.8286371068571,-173.860165347838));
#608= IFCCARTESIANPOINT((-47.2994889888269,-173.523983565775));
#609= IFCCARTESIANPOINT((-47.7409710013799,-173.150067374712));
#610= IFCCARTESIANPOINT((-48.1500673747123,-172.74097100138));
#611= IFCCARTESIANPOINT((-48.523983565774,-172.299488988828));
#612= IFCCARTESIANPOINT((-48.8601653478381,-171.828637106857));
#613= IFCCARTESIANPOINT((-49.1563162584462,-171.33163175126));
#614= IFCCARTESIANPOINT((-49.410413286585,-170.811867972571));
#615= IFCCARTESIANPOINT((-49.6207206919044,-170.272896284433));
#616= IFCCARTESIANPOINT((-49.7858018615752,-169.718398409986));
#617= IFCCARTESIANPOINT((-49.9045291238199,-169.152162131965));
#618= IFCCARTESIANPOINT((-49.9760914510462,-168.578055418306));
#619= IFCCARTESIANPOINT((-50.,-168.));
#620= IFCCARTESIANPOINT((-50.,-38.6966964010046));
#621= IFCCARTESIANPOINT((-49.9766420046471,-38.1253240714485));
#622= IFCCARTESIANPOINT((-49.9067239031483,-37.5577649168119));
#623= IFCCARTESIANPOINT((-49.7907123088407,-36.9978066639793));
#624= IFCCARTESIANPOINT((-49.629381449804,-36.4491863135984));
#625= IFCCARTESIANPOINT((-49.4238080018858,-35.9155652004106));
#626= IFCCARTESIANPOINT((-49.175363903265,-35.4005045585533));
#627= IFCCARTESIANPOINT((-48.8857071985458,-34.9074417549061));
#628= IFCCARTESIANPOINT((-48.5567709734314,-34.4396673490908));
#629= IFCCARTESIANPOINT((-48.1907504538667,-34.0003031332208));
#630= IFCCARTESIANPOINT((-32.033856883505,-16.1426839238738));
#631= IFCCARTESIANPOINT((-31.8247023008971,-15.8916186576624));
#632= IFCCARTESIANPOINT((-31.6367387436876,-15.6243189971965));
#633= IFCCARTESIANPOINT((-31.471220626705,-15.3425688236838));
#634= IFCCARTESIANPOINT((-31.3292525703509,-15.0482484569083));
#635= IFCCARTESIANPOINT((-31.211782028684,-14.7433221065152));
#636= IFCCARTESIANPOINT((-31.1195929663772,-14.4298247634404));
#637= IFCCARTESIANPOINT((-31.0533006267724,-14.1098486189646));
#638= IFCCARTESIANPOINT((-31.0133474259146,-13.7855291020294));
#639= IFCCARTESIANPOINT((-31.,-13.4590306279974));
#640= IFCCARTESIANPOINT((-31.,13.4590306279974));
#641= IFCCARTESIANPOINT((-31.0133474259146,13.7855291020294));
#642= IFCCARTESIANPOINT((-31.0533006267724,14.1098486189646));
#643= IFCCARTESIANPOINT((-31.1195929663772,14.4298247634404));
#644= IFCCARTESIANPOINT((-31.211782028684,14.7433221065152));
#645= IFCCARTESIANPOINT((-31.3292525703509,15.0482484569083));
#646= IFCCARTESIANPOINT((-31.471220626705,15.3425688236838));
#647= IFCCARTESIANPOINT((-31.6367387436876,15.6243189971965));
#648= IFCCARTESIANPOINT((-31.8247023008971,15.8916186576624));
#649= IFCCARTESIANPOINT((-32.033856883505,16.1426839238738));
#650= IFCCARTESIANPOINT((-48.1907504538667,34.0003031332208));
#651= IFCCARTESIANPOINT((-48.5567709734314,34.4396673490908));
#652= IFCCARTESIANPOINT((-48.8857071985458,34.9074417549061));
#653= IFCCARTESIANPOINT((-49.175363903265,35.4005045585533));
#654= IFCCARTESIANPOINT((-49.4238080018858,35.9155652004106));
#655= IFCCARTESIANPOINT((-49.629381449804,36.4491863135984));
#656= IFCCARTESIANPOINT((-49.7907123088407,36.9978066639793));
#657= IFCCARTESIANPOINT((-49.9067239031483,37.5577649168119));
#658= IFCCARTESIANPOINT((-49.9766420046471,38.1253240714485));
#659= IFCCARTESIANPOINT((-50.,38.6966964010046));
#660= IFCCARTESIANPOINT((-50.,168.));
#661= IFCCARTESIANPOINT((-49.9760914510462,168.578055418306));
#662= IFCCARTESIANPOINT((-49.9045291238199,169.152162131965));
#663= IFCCARTESIANPOINT((-49.7858018615752,169.718398409986));
#664= IFCCARTESIANPOINT((-49.6207206919044,170.272896284433));
#665= IFCCARTESIANPOINT((-49.410413286585,170.811867972571));
#666= IFCCARTESIANPOINT((-49.1563162584462,171.33163175126));
#667= IFCCARTESIANPOINT((-48.8601653478381,171.828637106857));
#668= IFCCARTESIANPOINT((-48.523983565774,172.299488988828));
#669= IFCCARTESIANPOINT((-48.1500673747123,172.74097100138));
#670= IFCCARTESIANPOINT((-47.7409710013799,173.150067374712));
#671= IFCCARTESIANPOINT((-47.2994889888269,173.523983565775));
#672= IFCCARTESIANPOINT((-46.8286371068571,173.860165347838));
#673= IFCCARTESIANPOINT((-46.3316317512599,174.156316258445));
#674= IFCCARTESIANPOINT((-45.8118679725703,174.410413286585));
#675= IFCCARTESIANPOINT((-45.2728962844321,174.620720691904));
#676= IFCCARTESIANPOINT((-44.7183984099847,174.785801861575));
#677= IFCCARTESIANPOINT((-44.1521621319644,174.904529123819));
#678= IFCCARTESIANPOINT((-43.5780554183057,174.976091451047));
#679= IFCCARTESIANPOINT((-43.,175.));
#680= IFCCARTESIANPOINT((42.9999999999982,175.));
#681= IFCCARTESIANPOINT((43.5780554183038,174.976091451047));
#682= IFCCARTESIANPOINT((44.1521621319625,174.904529123819));
#683= IFCCARTESIANPOINT((44.7183984099829,174.785801861575));
#684= IFCCARTESIANPOINT((45.2728962844303,174.620720691904));
#685= IFCCARTESIANPOINT((45.8118679725685,174.410413286585));
#686= IFCCARTESIANPOINT((46.3316317512581,174.156316258445));
#687= IFCCARTESIANPOINT((46.8286371068552,173.860165347838));
#688= IFCCARTESIANPOINT((47.299488988825,173.523983565775));
#689= IFCCARTESIANPOINT((47.7409710013781,173.150067374712));
#690= IFCCARTESIANPOINT((48.1500673747105,172.74097100138));
#691= IFCCARTESIANPOINT((48.5239835657721,172.299488988828));
#692= IFCCARTESIANPOINT((48.8601653478363,171.828637106857));
#693= IFCCARTESIANPOINT((49.1563162584443,171.33163175126));
#694= IFCCARTESIANPOINT((49.4104132865832,170.811867972571));
#695= IFCPOLYLINE((#451,#452,#453,#454,#455,#456,#457,#458,#459,#460,#461,#462,#463,#464,#465,#466,#467,#468,#469,#470,#471,#472,#473,#474,#475,#476,#477,#478,#479,#480,#481,#482,#483,#484,#485,#486,#487,#488,#489,#490,#491,#492,#493,#494,#495,#496,#497,#498,#499,#500,#501,#502,#503,#504,#505,#506,#507,#508,#509,#510,#511,#512,#513,#514,#515,#516,#517,#518,#519,#520,#521,#522,#523,#524,#525,#526,#527,#528,#529,#530,#531,#532,#533,#534,#535,#536,#537,#538,#539,#540,#541,#542,#543,#544,#545,#546,#547,#548,#549,#550,#551,#552,#553,#554,#555,#556,#557,#558,#559,#560,#561,#562,#563,#564,#565,#566,#567,#568,#569,#570,#571,#572,#573,#574,#575,#576,#577,#578,#579,#580,#581,#582,#583,#584,#585,#586,#587,#588,#589,#590,#591,#592,#593,#594,#595,#596,#597,#598,#599,#600,#601,#602,#603,#604,#605,#606,#607,#608,#609,#610,#611,#612,#613,#614,#615,#616,#617,#618,#619,#620,#621,#622,#623,#624,#625,#626,#627,#628,#629,#630,#631,#632,#633,#634,#635,#636,#637,#638,#639,#640,#641,#642,#643,#644,#645,#646,#647,#648,#649,#650,#651,#652,#653,#654,#655,#656,#657,#658,#659,#660,#661,#662,#663,#664,#665,#666,#667,#668,#669,#670,#671,#672,#673,#674,#675,#676,#677,#678,#679,#680,#681,#682,#683,#684,#685,#686,#687,#688,#689,#690,#691,#692,#693,#694,#451));
#696= IFCARBITRARYCLOSEDPROFILEDEF(.AREA.,'S 350x3,5',#695);
#697= IFCCARTESIANPOINT((650.000194600634,0.,0.));
#698= IFCAXIS2PLACEMENT3D(#697,#222,#370);
#699= IFCEXTRUDEDAREASOLID(#696,#698,#9,650.);
#700= IFCSHAPEREPRESENTATION(#12,'Body','SweptSolid',(#699));
#701= IFCSTYLEDITEM(#699,(#450),$);
#702= IFCPRODUCTDEFINITIONSHAPE($,$,(#700));
#703= IFCCARTESIANPOINT((11555.,175.051591614756,890.000200084261));
#704= IFCAXIS2PLACEMENT3D(#703,#8,#326);
#705= IFCLOCALPLACEMENT(#438,#704);
#706= IFCBEAM('2wMuTnm4fAkA5I$vCb54PE',#44,'\X2\041A043E043B043E043D043D0430\X0\','S 350x3,5',$,#705,#702,'\X2\041A00310028003F0029\X0\');
#707= IFCBEAMTYPE('1BJh_wdqrA_OcVp$Ju_ZKO',#5,'S 350x3,5',$,$,$,$,$,$,.NOTDEFINED.);
#708= IFCPROPERTYSINGLEVALUE('Bottom elevation',$,IFCLABEL(' +0.240'),$);
#709= IFCPROPERTYSINGLEVALUE('Top elevation',$,IFCLABEL(' +0.890'),$);
#710= IFCPROPERTYSINGLEVALUE('Class',$,IFCLABEL('2'),$);
#711= IFCPROPERTYSET('3MiFmDSgP1nvZu5PnmBgR_',#5,'Tekla Common','Common Properties to Shared building elements',(#331,#708,#709,#334,#335,#336,#710));
#712= IFCPROPERTYSINGLEVALUE('Weight',$,IFCMASSMEASURE(10.57),$);
#713= IFCPROPERTYSINGLEVALUE('Volume',$,IFCVOLUMEMEASURE(0.001),$);
#714= IFCPROPERTYSINGLEVALUE('Gross footprint area',$,IFCAREAMEASURE(0.002),$);
#715= IFCPROPERTYSINGLEVALUE('Area per tons',$,IFCAREAMEASURE(73.754),$);
#716= IFCPROPERTYSINGLEVALUE('Net surface area',$,IFCAREAMEASURE(0.779),$);
#717= IFCPROPERTYSINGLEVALUE('Height',$,IFCLENGTHMEASURE(350.),$);
#718= IFCPROPERTYSINGLEVALUE('Width',$,IFCLENGTHMEASURE(100.),$);
#719= IFCPROPERTYSINGLEVALUE('Length',$,IFCLENGTHMEASURE(650.),$);
#720= IFCPROPERTYSET('129nssXn1EvAb5wJyeT$Q0',#5,'Tekla Quantity','Quantity Properties to Shared building elements',(#712,#713,#714,#715,#716,#717,#718,#719));
#721= IFCPROPERTYSINGLEVALUE('Reference',$,IFCIDENTIFIER('\X2\041A00310028003F0029\X0\'),$);
#722= IFCPROPERTYSET('3xMK4Kb_T5uvS9OGQOtAKs',#5,'Pset_BeamCommon','Common Properties to beam elements',(#348,#721));
#723= IFCQUANTITYLENGTH('Length',$,$,650.);
#724= IFCQUANTITYAREA('OuterSurfaceArea',$,$,0.77938129100643);
#725= IFCQUANTITYVOLUME('NetVolume',$,$,0.00134869256850775);
#726= IFCQUANTITYWEIGHT('NetWeight',$,$,10.5872366627859);
#727= IFCELEMENTQUANTITY('1qzzvXi4H14emvnhtTkdp7',#5,'BaseQuantities',$,$,(#723,#724,#725,#726));
#728= IFCMATERIAL('\X2\0053005400450045004C002F0421003300390030\X0\');
#729= IFCCOLOURRGB('Dark Gray',0.709803921568627,0.403921568627451,0.2);
#730= IFCSURFACESTYLERENDERING(#729,0.,$,$,$,$,IFCNORMALISEDRATIOMEASURE(0.00390625),IFCSPECULAREXPONENT(10.),.NOTDEFINED.);
#731= IFCSURFACESTYLE('\X2\0053005400450045004C002F0421003200340035\X0\',.POSITIVE.,(#730));
#732= IFCPRESENTATIONSTYLEASSIGNMENT((#731));
#733= IFCCARTESIANPOINT((84.,0.));
#734= IFCCARTESIANPOINT((84.,84.));
#735= IFCCARTESIANPOINT((0.,84.));
#736= IFCPOLYLINE((#67,#733,#734,#735,#67));
#737= IFCARBITRARYCLOSEDPROFILEDEF(.AREA.,'PL10*84',#736);
#738= IFCEXTRUDEDAREASOLID(#737,#320,#9,10.);
#739= IFCSHAPEREPRESENTATION(#12,'Body','SweptSolid',(#738));
#740= IFCSTYLEDITEM(#738,(#732),$);
#741= IFCPRODUCTDEFINITIONSHAPE($,$,(#739));
#742= IFCCARTESIANPOINT((11538.,383.051592125757,194.999985694885));
#743= IFCAXIS2PLACEMENT3D(#742,#9,#7);
#744= IFCLOCALPLACEMENT(#168,#743);
#745= IFCPLATE('2irc$6ngXB3v3CDgdjNxog',#44,'\X2\04280430043904310430\X0\','PL10*84',$,#744,#741,'\X2\04280031\X0\');
#746= IFCPLATETYPE('0X$2lVwv1AdAn2JJIQMLbk',#5,'PL10*84',$,$,$,$,$,$,.NOTDEFINED.);
#747= IFCPROPERTYSINGLEVALUE('Bottom elevation',$,IFCLABEL(' +0.190'),$);
#748= IFCPROPERTYSINGLEVALUE('Top elevation',$,IFCLABEL(' +0.200'),$);
#749= IFCPROPERTYSINGLEVALUE('Class',$,IFCLABEL('8'),$);
#750= IFCPROPERTYSET('14VqYO2eb7I9vFDT2NT_zu',#5,'Tekla Common','Common Properties to Shared building elements',(#331,#747,#748,#334,#335,#336,#749));
#751= IFCPROPERTYSINGLEVALUE('Weight',$,IFCMASSMEASURE(0.55),$);
#752= IFCPROPERTYSINGLEVALUE('Gross footprint area',$,IFCAREAMEASURE(0.007),$);
#753= IFCPROPERTYSINGLEVALUE('Area per tons',$,IFCAREAMEASURE(31.544),$);
#754= IFCPROPERTYSINGLEVALUE('Net surface area',$,IFCAREAMEASURE(0.017),$);
#755= IFCPROPERTYSINGLEVALUE('Height',$,IFCLENGTHMEASURE(84.),$);
#756= IFCPROPERTYSINGLEVALUE('Length',$,IFCLENGTHMEASURE(84.),$);
#757= IFCPROPERTYSET('3ar18quf91ogIJPWHpR3Lo',#5,'Tekla Quantity','Quantity Properties to Shared building elements',(#751,#340,#752,#753,#754,#755,#345,#756));
#758= IFCPROPERTYSINGLEVALUE('Reference',$,IFCIDENTIFIER('\X2\04280031\X0\'),$);
#759= IFCPROPERTYSET('1WiauwmZH5dR1ToKJMT4pJ',#5,'Pset_PlateCommon','Common Properties to plate elements',(#348,#758));
#760= IFCQUANTITYLENGTH('Width',$,$,84.);
#761= IFCQUANTITYAREA('NetArea',$,$,0.017472);
#762= IFCQUANTITYAREA('GrossArea',$,$,0.007056);
#763= IFCQUANTITYVOLUME('NetVolume',$,$,7.056E-05);
#764= IFCQUANTITYVOLUME('GrossVolume',$,$,7.056E-05);
#765= IFCELEMENTQUANTITY('0ouanKqIv6aBtYNFSG6oFy',#5,'BaseQuantities',$,$,(#760,#761,#762,#354,#763,#764));
#766= IFCMATERIAL('\X2\0053005400450045004C002F0421003200340035\X0\');
#767= IFCARBITRARYCLOSEDPROFILEDEF(.AREA.,'PL20*84',#736);
#768= IFCCARTESIANPOINT((0.,0.,-10.));
#769= IFCAXIS2PLACEMENT3D(#768,#9,#7);
#770= IFCEXTRUDEDAREASOLID(#767,#769,#9,20.);
#771= IFCSHAPEREPRESENTATION(#12,'Body','SweptSolid',(#770));
#772= IFCSTYLEDITEM(#770,(#732),$);
#773= IFCPRODUCTDEFINITIONSHAPE($,$,(#771));
#774= IFCCARTESIANPOINT((11538.,383.051592125757,230.000014305115));
#775= IFCAXIS2PLACEMENT3D(#774,#9,#7);
#776= IFCLOCALPLACEMENT(#203,#775);
#777= IFCPLATE('3zwl6P9e94JwCtStyLttg4',#44,'\X2\04280430043904310430\X0\','PL20*84',$,#776,#773,'\X2\04280033\X0\');
#778= IFCPLATETYPE('0LyLd9dMnFZ90vXdGAcOXq',#5,'PL20*84',$,$,$,$,$,$,.NOTDEFINED.);
#779= IFCPROPERTYSINGLEVALUE('Top elevation',$,IFCLABEL(' +0.240'),$);
#780= IFCPROPERTYSET('3lhEL_GdXBTfACLs_mqUB5',#5,'Tekla Common','Common Properties to Shared building elements',(#331,#332,#779,#334,#335,#336,#749));
#781= IFCPROPERTYSINGLEVALUE('Weight',$,IFCMASSMEASURE(1.11),$);
#782= IFCPROPERTYSINGLEVALUE('Area per tons',$,IFCAREAMEASURE(18.805),$);
#783= IFCPROPERTYSINGLEVALUE('Net surface area',$,IFCAREAMEASURE(0.021),$);
#784= IFCPROPERTYSINGLEVALUE('Width',$,IFCLENGTHMEASURE(20.),$);
#785= IFCPROPERTYSET('1dZXd4LDn3aAx9s5qccSwM',#5,'Tekla Quantity','Quantity Properties to Shared building elements',(#781,#340,#752,#782,#783,#755,#784,#756));
#786= IFCPROPERTYSINGLEVALUE('Reference',$,IFCIDENTIFIER('\X2\04280033\X0\'),$);
#787= IFCPROPERTYSET('0Ubal5fzbDEeWb$Ci7Hs$2',#5,'Pset_PlateCommon','Common Properties to plate elements',(#348,#786));
#788= IFCQUANTITYAREA('NetArea',$,$,0.020832);
#789= IFCQUANTITYAREA('CrossSectionArea',$,$,0.0004);
#790= IFCQUANTITYVOLUME('NetVolume',$,$,0.00014112);
#791= IFCQUANTITYVOLUME('GrossVolume',$,$,0.00014112);
#792= IFCELEMENTQUANTITY('3Z8mFl79XDje5tq3XdiFsQ',#5,'BaseQuantities',$,$,(#760,#788,#762,#789,#790,#791));
#793= IFCSHAPEREPRESENTATION(#12,'Body','SweptSolid',(#738));
#794= IFCPRODUCTDEFINITIONSHAPE($,$,(#793));
#795= IFCCARTESIANPOINT((11378.,383.051592125757,194.999985694885));
#796= IFCAXIS2PLACEMENT3D(#795,#9,#7);
#797= IFCLOCALPLACEMENT(#228,#796);
#798= IFCPLATE('2vgiS5Zl9EcP1tIyc62NW9',#44,'\X2\04280430043904310430\X0\','PL10*84',$,#797,#794,'\X2\04280031\X0\');
#799= IFCSHAPEREPRESENTATION(#12,'Body','SweptSolid',(#770));
#800= IFCPRODUCTDEFINITIONSHAPE($,$,(#799));
#801= IFCCARTESIANPOINT((11378.,383.051592125757,230.000014305115));
#802= IFCAXIS2PLACEMENT3D(#801,#9,#7);
#803= IFCLOCALPLACEMENT(#236,#802);
#804= IFCPLATE('2fafrQ3cf5WBHh62Sd41t_',#44,'\X2\04280430043904310430\X0\','PL20*84',$,#803,#800,'\X2\04280033\X0\');
#805= IFCSHAPEREPRESENTATION(#12,'Body','SweptSolid',(#738));
#806= IFCPRODUCTDEFINITIONSHAPE($,$,(#805));
#807= IFCCARTESIANPOINT((11538.,-116.948407874243,194.999985694885));
#808= IFCAXIS2PLACEMENT3D(#807,#9,#7);
#809= IFCLOCALPLACEMENT(#244,#808);
#810= IFCPLATE('07PDSvedjAYOUN29boiYsx',#44,'\X2\04280430043904310430\X0\','PL10*84',$,#809,#806,'\X2\04280031\X0\');
#811= IFCSHAPEREPRESENTATION(#12,'Body','SweptSolid',(#770));
#812= IFCPRODUCTDEFINITIONSHAPE($,$,(#811));
#813= IFCCARTESIANPOINT((11538.,-116.948407874243,230.000014305115));
#814= IFCAXIS2PLACEMENT3D(#813,#9,#7);
#815= IFCLOCALPLACEMENT(#252,#814);
#816= IFCPLATE('18Cw4lvG16sOCh5TZXtiE7',#44,'\X2\04280430043904310430\X0\','PL20*84',$,#815,#812,'\X2\04280033\X0\');
#817= IFCSHAPEREPRESENTATION(#12,'Body','SweptSolid',(#738));
#818= IFCPRODUCTDEFINITIONSHAPE($,$,(#817));
#819= IFCCARTESIANPOINT((11378.,-116.948407874243,194.999985694885));
#820= IFCAXIS2PLACEMENT3D(#819,#9,#7);
#821= IFCLOCALPLACEMENT(#260,#820);
#822= IFCPLATE('2rQ7wVpWHE7gz0maotjUeJ',#44,'\X2\04280430043904310430\X0\','PL10*84',$,#821,#818,'\X2\04280031\X0\');
#823= IFCSHAPEREPRESENTATION(#12,'Body','SweptSolid',(#770));
#824= IFCPRODUCTDEFINITIONSHAPE($,$,(#823));
#825= IFCCARTESIANPOINT((11378.,-116.948407874243,230.000014305115));
#826= IFCAXIS2PLACEMENT3D(#825,#9,#7);
#827= IFCLOCALPLACEMENT(#268,#826);
#828= IFCPLATE('3MxLxZxUr3G9Z1jr2na0nY',#44,'\X2\04280430043904310430\X0\','PL20*84',$,#827,#824,'\X2\04280033\X0\');
#829= IFCCARTESIANPOINT((270.,0.));
#830= IFCCARTESIANPOINT((270.,610.));
#831= IFCCARTESIANPOINT((0.,610.));
#832= IFCPOLYLINE((#67,#829,#830,#831,#67));
#833= IFCARBITRARYCLOSEDPROFILEDEF(.AREA.,'PL20*270',#832);
#834= IFCEXTRUDEDAREASOLID(#833,#769,#9,20.);
#835= IFCSHAPEREPRESENTATION(#12,'Body','SweptSolid',(#834));
#836= IFCSTYLEDITEM(#834,(#732),$);
#837= IFCPRODUCTDEFINITIONSHAPE($,$,(#835));
#838= IFCCARTESIANPOINT((11365.,-129.948407874243,210.000005483627));
#839= IFCAXIS2PLACEMENT3D(#838,#9,#7);
#840= IFCLOCALPLACEMENT(#45,#839);
#841= IFCPLATE('1m0E8TShv3gxHEkDilOdN0',#44,'\X2\04110430043704300020043A043E043B043E043D043D044B\X0\','PL20*270',$,#840,#837,'85');
#842= IFCPLATETYPE('0qBFlEyUn0ZOEdnSM3FzXw',#5,'PL20*270',$,$,$,$,$,$,.NOTDEFINED.);
#843= IFCPROPERTYSINGLEVALUE('Bottom elevation',$,IFCLABEL(' +0.200'),$);
#844= IFCPROPERTYSINGLEVALUE('Top elevation',$,IFCLABEL(' +0.220'),$);
#845= IFCPROPERTYSET('2fEEl8Hr5D_QhFouu0SamH',#5,'Tekla Common','Common Properties to Shared building elements',(#331,#843,#844,#334,#335,#336,#749));
#846= IFCPROPERTYSINGLEVALUE('Weight',$,IFCMASSMEASURE(25.86),$);
#847= IFCPROPERTYSINGLEVALUE('Gross footprint area',$,IFCAREAMEASURE(0.165),$);
#848= IFCPROPERTYSINGLEVALUE('Area per tons',$,IFCAREAMEASURE(14.1),$);
#849= IFCPROPERTYSINGLEVALUE('Net surface area',$,IFCAREAMEASURE(0.365),$);
#850= IFCPROPERTYSINGLEVALUE('Height',$,IFCLENGTHMEASURE(270.),$);
#851= IFCPROPERTYSET('1WgSkAifjDW97krK6$CsAO',#5,'Tekla Quantity','Quantity Properties to Shared building elements',(#846,#421,#847,#848,#849,#850,#784,#427));
#852= IFCPROPERTYSINGLEVALUE('Reference',$,IFCIDENTIFIER('85'),$);
#853= IFCPROPERTYSET('2KsYOf2nf0bAerSVX2kWMe',#5,'Pset_PlateCommon','Common Properties to plate elements',(#348,#852));
#854= IFCQUANTITYLENGTH('Width',$,$,270.);
#855= IFCQUANTITYAREA('NetArea',$,$,0.3646);
#856= IFCQUANTITYAREA('GrossArea',$,$,0.1647);
#857= IFCQUANTITYVOLUME('NetVolume',$,$,0.003294);
#858= IFCQUANTITYVOLUME('GrossVolume',$,$,0.003294);
#859= IFCELEMENTQUANTITY('0JKKCju6H1v8bLrPUxt3qK',#5,'BaseQuantities',$,$,(#854,#855,#856,#789,#857,#858));
#860= IFCLOCALPLACEMENT(#42,#10);
#861= IFCELEMENTASSEMBLY('1b4EAOmffCMByXzeQ3jBw4',#44,'\X2\041A043E043B043E043D043D0430\X0\',$,$,#860,$,'\X2\041A00310028003F0029\X0\',.NOTDEFINED.,.NOTDEFINED.);
#862= IFCCARTESIANPOINT((0.,0.,650.));
#863= IFCAXIS2PLACEMENT3D(#862,#326,#8);
#864= IFCEXTRUDEDAREASOLID(#696,#863,#9,650.);
#865= IFCSHAPEREPRESENTATION(#12,'Body','SweptSolid',(#864));
#866= IFCSTYLEDITEM(#864,(#450),$);
#867= IFCPRODUCTDEFINITIONSHAPE($,$,(#865));
#868= IFCCARTESIANPOINT((11445.,175.051591614756,240.000005483627));
#869= IFCAXIS2PLACEMENT3D(#868,#9,#8);
#870= IFCLOCALPLACEMENT(#860,#869);
#871= IFCCOLUMN('0N797gY$j4mh5uXL3cl2Q2',#44,'\X2\041A043E043B043E043D043D0430\X0\','S 350x3,5',$,#870,#867,'\X2\041A00310028003F0029\X0\');
#872= IFCCOLUMNTYPE('0SXtvLWqrEyPNGnJO97e3c',#5,'S 350x3,5',$,$,$,$,$,$,.NOTDEFINED.);
#873= IFCPROPERTYSET('02joGxLQDCmxHRL6ucZftn',#5,'Pset_ColumnCommon','Common Properties to column elements',(#348,#721));
#874= IFCRELAGGREGATES('2udnmHETT1OBE9pzRUF_j1',#5,$,$,#37,(#39));
#875= IFCRELAGGREGATES('2Av32ZWllJgTWR5FjmXG$J',#5,$,$,#39,(#41));
#876= IFCRELAGGREGATES('33H7Wga2v1Bemjn7L0krHZ',#5,$,$,#41,(#43));
#877= IFCRELAGGREGATES('37GPMDjFP93uY$Lkv2AaPJ',#5,$,$,#46,(#841,#416,#379,#373,#364,#329,#299,#148));
#878= IFCRELAGGREGATES('3sCHVZcM98xxYFLliYrff9',#5,$,$,#169,(#745,#191));
#879= IFCRELAGGREGATES('2682RY8Mj7FvjLdt1cfSzE',#5,$,$,#204,(#777,#225));
#880= IFCRELAGGREGATES('0J8OJ5Pg50wvWJd0IJ4t0n',#5,$,$,#229,(#798,#235));
#881= IFCRELAGGREGATES('06B$2$1i1EnASoRhAGAOIR',#5,$,$,#237,(#804,#243));
#882= IFCRELAGGREGATES('1EBccJOdjFoQ5e71ru$vYU',#5,$,$,#245,(#810,#251));
#883= IFCRELAGGREGATES('2$Y5RB82b1kwn3J8eW_u5O',#5,$,$,#253,(#816,#259));
#884= IFCRELAGGREGATES('35WfkvQTj2DwiG6xTtEokc',#5,$,$,#261,(#822,#267));
#885= IFCRELAGGREGATES('1_igYEpdTFmgOe3P_ms3_Q',#5,$,$,#269,(#828,#275));
#886= IFCRELAGGREGATES('3_rYCmpKD4ePx9SP2PJFsT',#5,$,$,#439,(#706));
#887= IFCRELAGGREGATES('3bCrYgk8j69Pj55MktqhBF',#5,$,$,#861,(#871));
#888= IFCRELCONTAINEDINSPATIALSTRUCTURE('1AcLgnsI9DDwN$AGtWW8h4',#5,$,$,(#861,#439,#269,#261,#253,#245,#237,#229,#204,#169,#46),#43);
#889= IFCRELDEFINESBYPROPERTIES('204a_t00v4SvaX7NeLS3Ut',#5,$,$,(#46),#55);
#890= IFCRELDEFINESBYPROPERTIES('2ElRQsq1f0Bwlt$F2rlNxs',#5,$,$,(#46),#57);
#891= IFCRELDEFINESBYPROPERTIES('3rYHfBQfz5lOny0b_g4XOy',#5,$,$,(#148),#166);
#892= IFCRELDEFINESBYPROPERTIES('2sgl0LieX8KwcLGaJmbsui',#5,$,$,(#261,#245,#229,#169),#174);
#893= IFCRELDEFINESBYPROPERTIES('3iZ0OeO899X9QM5JA49ICJ',#5,$,$,(#261,#245,#229,#169),#176);
#894= IFCRELDEFINESBYPROPERTIES('3TkXtVSr94kAHpOmZ_dBlq',#5,$,$,(#267,#251,#235,#191),#202);
#895= IFCRELDEFINESBYPROPERTIES('2J_uYdAsfDhxhrwUOXQv8G',#5,$,$,(#269,#253,#237,#204),#209);
#896= IFCRELDEFINESBYPROPERTIES('3NMZ5CteH6X9EdXccBPCRk',#5,$,$,(#269,#253,#237,#204),#211);
#897= IFCRELDEFINESBYPROPERTIES('3kFSDaxWr4XOQj_bsWDM3Y',#5,$,$,(#275,#259,#243,#225),#227);
#898= IFCRELDEFINESBYPROPERTIES('3nrZo5ED5AyQ4jLVmqD9fN',#5,$,$,(#299),#308);
#899= IFCRELDEFINESBYPROPERTIES('39ZUS505D8NvzcBF71CM4m',#5,$,$,(#379,#373,#364,#329),#338);
#900= IFCRELDEFINESBYPROPERTIES('2NLSSF9uz3j9wG39q7cdyb',#5,$,$,(#379,#373,#364,#329),#347);
#901= IFCRELDEFINESBYPROPERTIES('2xu5UHQdHCSwWOWX$DPvbo',#5,$,$,(#373,#329),#350);
#902= IFCRELDEFINESBYPROPERTIES('1SG084vU1AcgJLyPT7vPAm',#5,$,$,(#379,#373,#364,#329),#357);
#903= IFCRELDEFINESBYPROPERTIES('135QXHlSLAJBk0$6W7ypmK',#5,$,$,(#379,#364),#366);
#904= IFCRELDEFINESBYPROPERTIES('2e8HHeFNHDovA3sGynLvvU',#5,$,$,(#416),#419);
#905= IFCRELDEFINESBYPROPERTIES('3VZdJWI3zB$9e3lYH8SJdh',#5,$,$,(#416),#428);
#906= IFCRELDEFINESBYPROPERTIES('0AaMrEWX11Q9qGEIa22CDG',#5,$,$,(#416),#430);
#907= IFCRELDEFINESBYPROPERTIES('3Fme0N20PDHB06gwFUVgXN',#5,$,$,(#416),#437);
#908= IFCRELDEFINESBYPROPERTIES('0Q57aQ9WXFCgTgaxijxHPC',#5,$,$,(#861,#439),#444);
#909= IFCRELDEFINESBYPROPERTIES('3divspnfr2$fBlln5IRfv6',#5,$,$,(#861,#439),#446);
#910= IFCRELDEFINESBYPROPERTIES('3P4WWqaiP3Vu2HiiWcUvM$',#5,$,$,(#871,#706),#711);
#911= IFCRELDEFINESBYPROPERTIES('3o6GtD9v92yAuSjM$bRExZ',#5,$,$,(#871,#706),#720);
#912= IFCRELDEFINESBYPROPERTIES('1mpkIExCH5lBxOfeKBtQOn',#5,$,$,(#706),#722);
#913= IFCRELDEFINESBYPROPERTIES('2eEuyF_db0$Q_D41L99O62',#5,$,$,(#871,#706),#727);
#914= IFCRELDEFINESBYPROPERTIES('1todzzWtj6Gg3vEs4mOr5W',#5,$,$,(#822,#810,#798,#745),#750);
#915= IFCRELDEFINESBYPROPERTIES('2SHs07TK14ev9eME6UYxet',#5,$,$,(#822,#810,#798,#745),#757);
#916= IFCRELDEFINESBYPROPERTIES('1M7$59r7LBwvOvRW6zDwA0',#5,$,$,(#822,#810,#798,#745),#759);
#917= IFCRELDEFINESBYPROPERTIES('2nZNDVmj5BpwAITQefpgMK',#5,$,$,(#822,#810,#798,#745),#765);
#918= IFCRELDEFINESBYPROPERTIES('1iScZtAgb4F92J1L69jFif',#5,$,$,(#828,#816,#804,#777),#780);
#919= IFCRELDEFINESBYPROPERTIES('3yJAuKVw52lfaLlG7aitxV',#5,$,$,(#828,#816,#804,#777),#785);
#920= IFCRELDEFINESBYPROPERTIES('3n2Upm93P0dfynGPDF6GNn',#5,$,$,(#828,#816,#804,#777),#787);
#921= IFCRELDEFINESBYPROPERTIES('22WLSu7Ib9vh6NLHV$e6Ve',#5,$,$,(#828,#816,#804,#777),#792);
#922= IFCRELDEFINESBYPROPERTIES('2KXaZ_9DD7S8C7vcDVlfbo',#5,$,$,(#841),#845);
#923= IFCRELDEFINESBYPROPERTIES('3YWirEJID9HRhT1MDGrTCQ',#5,$,$,(#841),#851);
#924= IFCRELDEFINESBYPROPERTIES('1lJXN5kFHA888vDuBpnymK',#5,$,$,(#841),#853);
#925= IFCRELDEFINESBYPROPERTIES('3XXwoV6_n1dgu2nOexkNai',#5,$,$,(#841),#859);
#926= IFCRELDEFINESBYPROPERTIES('28wqHvACTDQAFe9IhCFTqt',#5,$,$,(#871),#873);
#927= IFCRELDEFINESBYTYPE('1DyILTPjv8xw8wLqZ6H6gU',#5,$,$,(#299,#275,#267,#259,#251,#243,#235,#225,#191,#148),#149);
#928= IFCRELDEFINESBYTYPE('1tK0aSqGr7JQ2nbeHMp67x',#5,$,$,(#379,#373,#364,#329),#330);
#929= IFCRELDEFINESBYTYPE('0rb9$TC6n7LggvKwriRCxi',#5,$,$,(#416),#417);
#930= IFCRELDEFINESBYTYPE('0JGKUL7rnC3g91YRgV$k3W',#5,$,$,(#706),#707);
#931= IFCRELDEFINESBYTYPE('0uLENrrgj4COJrlKNEL18U',#5,$,$,(#822,#810,#798,#745),#746);
#932= IFCRELDEFINESBYTYPE('3VvZmlxfLCI9RrHlI7h6iw',#5,$,$,(#828,#816,#804,#777),#778);
#933= IFCRELDEFINESBYTYPE('056urJWw5AVR1_LssgxihD',#5,$,$,(#841),#842);
#934= IFCRELDEFINESBYTYPE('1k8weLV2P4kA7WvPXQF91_',#5,$,$,(#871),#872);
#935= IFCRELASSOCIATESMATERIAL('0NGKs_uqL6R9IXHfmeV9cM',#5,$,$,(#299,#275,#267,#259,#251,#243,#235,#225,#191,#148),#167);
#936= IFCRELASSOCIATESMATERIAL('1ct0MnjzL5TA61h$pvgbOk',#5,$,$,(#416,#379,#373,#364,#329),#358);
#937= IFCRELASSOCIATESMATERIAL('18XusRBdv6K8L8sUfptgn$',#5,$,$,(#871,#706),#728);
#938= IFCRELASSOCIATESMATERIAL('3H1edpzlrBC8AZs1kJaB2E',#5,$,$,(#841,#828,#822,#816,#810,#804,#798,#777,#745),#766);
#939= IFCPRESENTATIONLAYERASSIGNMENT('BoltArray',$,(#143,#186,#219,#230,#238,#246,#254,#262,#270,#294),$);
#940= IFCPRESENTATIONLAYERASSIGNMENT('\X2\04110430043704300020043A043E043B043E043D043D044B\X0\',$,(#322,#359,#367,#374,#410,#835),$);
#941= IFCPRESENTATIONLAYERASSIGNMENT('\X2\041A043E043B043E043D043D0430\X0\',$,(#700,#865),$);
#942= IFCPRESENTATIONLAYERASSIGNMENT('\X2\04280430043904310430\X0\',$,(#739,#771,#793,#799,#805,#811,#817,#823),$);
ENDSEC;

END-ISO-10303-21;
